<svg width="24" height="25" viewBox="0 0 24 25" fill="none" xmlns="http://www.w3.org/2000/svg">
<g clip-path="url(#clip0_2144_6644)">
<path d="M19.5 4.25H4.5C4.08579 4.25 3.75 4.58579 3.75 5V20C3.75 20.4142 4.08579 20.75 4.5 20.75H19.5C19.9142 20.75 20.25 20.4142 20.25 20V5C20.25 4.58579 19.9142 4.25 19.5 4.25Z" stroke="#808286" stroke-width="1.5" stroke-linecap="round" stroke-linejoin="round"/>
<path d="M16.5 2.75V5.75" stroke="#808286" stroke-width="1.5" stroke-linecap="round" stroke-linejoin="round"/>
<path d="M7.5 2.75V5.75" stroke="#808286" stroke-width="1.5" stroke-linecap="round" stroke-linejoin="round"/>
<path d="M3.75 8.75H20.25" stroke="#808286" stroke-width="1.5" stroke-linecap="round" stroke-linejoin="round"/>
<path d="M12 14C12.6213 14 13.125 13.4963 13.125 12.875C13.125 12.2537 12.6213 11.75 12 11.75C11.3787 11.75 10.875 12.2537 10.875 12.875C10.875 13.4963 11.3787 14 12 14Z" fill="#808286"/>
<path d="M16.125 14C16.7463 14 17.25 13.4963 17.25 12.875C17.25 12.2537 16.7463 11.75 16.125 11.75C15.5037 11.75 15 12.2537 15 12.875C15 13.4963 15.5037 14 16.125 14Z" fill="#808286"/>
<path d="M7.875 17.75C8.49632 17.75 9 17.2463 9 16.625C9 16.0037 8.49632 15.5 7.875 15.5C7.25368 15.5 6.75 16.0037 6.75 16.625C6.75 17.2463 7.25368 17.75 7.875 17.75Z" fill="#808286"/>
<path d="M12 17.75C12.6213 17.75 13.125 17.2463 13.125 16.625C13.125 16.0037 12.6213 15.5 12 15.5C11.3787 15.5 10.875 16.0037 10.875 16.625C10.875 17.2463 11.3787 17.75 12 17.75Z" fill="#808286"/>
<path d="M16.125 17.75C16.7463 17.75 17.25 17.2463 17.25 16.625C17.25 16.0037 16.7463 15.5 16.125 15.5C15.5037 15.5 15 16.0037 15 16.625C15 17.2463 15.5037 17.75 16.125 17.75Z" fill="#808286"/>
</g>
<defs>
<clipPath id="clip0_2144_6644">
<rect width="24" height="24" fill="white" transform="translate(0 0.5)"/>
</clipPath>
</defs>
</svg>
