<svg width="33" height="32" viewBox="0 0 33 32" fill="none" xmlns="http://www.w3.org/2000/svg">
<path d="M9.39179 13.7146C9.39179 11.8959 10.1142 10.1518 11.4002 8.86583C12.6862 7.57987 14.4303 6.85742 16.2489 6.85742C18.0676 6.85742 19.8117 7.57987 21.0977 8.86583C22.3836 10.1518 23.1061 11.8959 23.1061 13.7146C23.1061 17.126 23.8965 19.8669 24.5251 20.9527C24.5919 21.0683 24.6271 21.1994 24.6272 21.3329C24.6273 21.4665 24.5923 21.5977 24.5258 21.7134C24.4592 21.8292 24.3634 21.9254 24.248 21.9924C24.1325 22.0595 24.0015 22.095 23.868 22.0955H8.62988C8.49653 22.0947 8.36572 22.0589 8.25053 21.9917C8.13535 21.9245 8.03982 21.8283 7.97349 21.7126C7.90716 21.5969 7.87236 21.4658 7.87256 21.3325C7.87276 21.1991 7.90796 21.0681 7.97464 20.9527C8.60226 19.8669 9.39179 17.125 9.39179 13.7146Z" stroke="white" stroke-width="1.5" stroke-linecap="round" stroke-linejoin="round"/>
<path d="M13.2021 22.0957C13.2021 22.904 13.5232 23.6792 14.0948 24.2507C14.6663 24.8222 15.4415 25.1433 16.2498 25.1433C17.058 25.1433 17.8332 24.8222 18.4048 24.2507C18.9763 23.6792 19.2974 22.904 19.2974 22.0957" stroke="white" stroke-width="1.5" stroke-linecap="round" stroke-linejoin="round"/>
</svg>
